<svg xmlns="http://www.w3.org/2000/svg" xmlns:xlink="http://www.w3.org/1999/xlink" width="500" zoomAndPan="magnify" viewBox="0 0 375 374.999991" height="500" preserveAspectRatio="xMidYMid meet" version="1.0"><defs><g/><clipPath id="909693c2f4"><path d="M 171.757812 5.921875 L 202.386719 5.921875 L 202.386719 36.550781 L 171.757812 36.550781 Z M 171.757812 5.921875 " clip-rule="nonzero"/></clipPath><clipPath id="8dc9e26e76"><path d="M 187.074219 5.921875 C 178.613281 5.921875 171.757812 12.777344 171.757812 21.234375 C 171.757812 29.691406 178.613281 36.550781 187.074219 36.550781 C 195.53125 36.550781 202.386719 29.691406 202.386719 21.234375 C 202.386719 12.777344 195.53125 5.921875 187.074219 5.921875 Z M 187.074219 5.921875 " clip-rule="nonzero"/></clipPath><clipPath id="d940ff346b"><path d="M 100.722656 175.851562 L 120.679688 175.851562 L 120.679688 195.808594 L 100.722656 195.808594 Z M 100.722656 175.851562 " clip-rule="nonzero"/></clipPath><clipPath id="eef0c89ee6"><path d="M 110.699219 175.851562 C 105.1875 175.851562 100.722656 180.316406 100.722656 185.828125 C 100.722656 191.339844 105.1875 195.808594 110.699219 195.808594 C 116.210938 195.808594 120.679688 191.339844 120.679688 185.828125 C 120.679688 180.316406 116.210938 175.851562 110.699219 175.851562 Z M 110.699219 175.851562 " clip-rule="nonzero"/></clipPath><clipPath id="a86ba4b61a"><path d="M 235.960938 330.730469 L 261.886719 330.730469 L 261.886719 356.65625 L 235.960938 356.65625 Z M 235.960938 330.730469 " clip-rule="nonzero"/></clipPath><clipPath id="f6455d1bbf"><path d="M 248.925781 330.730469 C 241.765625 330.730469 235.960938 336.535156 235.960938 343.691406 C 235.960938 350.851562 241.765625 356.65625 248.925781 356.65625 C 256.082031 356.65625 261.886719 350.851562 261.886719 343.691406 C 261.886719 336.535156 256.082031 330.730469 248.925781 330.730469 Z M 248.925781 330.730469 " clip-rule="nonzero"/></clipPath></defs><rect x="-37.5" width="450" fill="#ffffff" y="-37.499999" height="449.999989" fill-opacity="1"/><rect x="-37.5" width="450" fill="#ffffff" y="-37.499999" height="449.999989" fill-opacity="1"/><g fill="#000000" fill-opacity="1"><g transform="translate(32.589985, 358.395203)"><g><path d="M 2.46875 -1.65625 C 2.382812 -2.039062 2.34375 -2.769531 2.34375 -3.84375 C 2.34375 -4.925781 2.546875 -6.078125 2.953125 -7.296875 L 3.328125 -7.296875 C 3.296875 -6.992188 3.28125 -6.695312 3.28125 -6.40625 C 3.28125 -4.75 3.78125 -3.375 4.78125 -2.28125 C 5.78125 -1.1875 7.101562 -0.640625 8.75 -0.640625 C 10.445312 -0.640625 11.84375 -1.148438 12.9375 -2.171875 C 14.03125 -3.203125 14.578125 -4.492188 14.578125 -6.046875 C 14.578125 -7.609375 14.050781 -8.875 13 -9.84375 L 5.21875 -17.046875 C 3.757812 -18.398438 3.03125 -20.035156 3.03125 -21.953125 C 3.03125 -23.867188 3.671875 -25.507812 4.953125 -26.875 C 6.242188 -28.238281 7.984375 -28.921875 10.171875 -28.921875 C 11.191406 -28.921875 12.351562 -28.785156 13.65625 -28.515625 L 15.234375 -28.515625 L 15.234375 -23.53125 L 14.859375 -23.53125 C 14.859375 -24.800781 14.421875 -25.8125 13.546875 -26.5625 C 12.671875 -27.320312 11.539062 -27.703125 10.15625 -27.703125 C 8.78125 -27.703125 7.628906 -27.242188 6.703125 -26.328125 C 5.773438 -25.410156 5.3125 -24.257812 5.3125 -22.875 C 5.3125 -21.5 5.847656 -20.3125 6.921875 -19.3125 L 14.90625 -11.953125 C 16.25 -10.703125 16.921875 -9 16.921875 -6.84375 C 16.921875 -4.6875 16.234375 -2.910156 14.859375 -1.515625 C 13.484375 -0.128906 11.648438 0.5625 9.359375 0.5625 C 8.171875 0.5625 6.90625 0.378906 5.5625 0.015625 C 4.226562 -0.347656 3.195312 -0.90625 2.46875 -1.65625 Z M 2.46875 -1.65625 "/></g></g></g><g fill="#000000" fill-opacity="1"><g transform="translate(51.824794, 358.395203)"><g><path d="M 29 -0.40625 L 29.328125 -0.40625 L 29.328125 0 L 20.21875 0 L 20.21875 -0.40625 L 20.578125 -0.40625 C 21.148438 -0.40625 21.578125 -0.585938 21.859375 -0.953125 C 22.140625 -1.316406 22.28125 -1.660156 22.28125 -1.984375 C 22.28125 -2.304688 22.226562 -2.628906 22.125 -2.953125 L 19.53125 -9.84375 L 8.59375 -9.84375 L 5.875 -2.921875 C 5.769531 -2.597656 5.71875 -2.28125 5.71875 -1.96875 C 5.71875 -1.65625 5.859375 -1.316406 6.140625 -0.953125 C 6.421875 -0.585938 6.847656 -0.40625 7.421875 -0.40625 L 7.78125 -0.40625 L 7.78125 0 L -0.359375 0 L -0.359375 -0.40625 L 0 -0.40625 C 0.675781 -0.40625 1.335938 -0.617188 1.984375 -1.046875 C 2.640625 -1.484375 3.171875 -2.117188 3.578125 -2.953125 L 12.71875 -24.75 C 13.71875 -26.9375 14.21875 -28.328125 14.21875 -28.921875 L 14.59375 -28.921875 L 25.4375 -2.953125 C 25.8125 -2.117188 26.320312 -1.484375 26.96875 -1.046875 C 27.625 -0.617188 28.300781 -0.40625 29 -0.40625 Z M 9.078125 -11.0625 L 19.046875 -11.0625 L 14.1875 -24.0625 Z M 9.078125 -11.0625 "/></g></g></g><g fill="#000000" fill-opacity="1"><g transform="translate(80.656766, 358.395203)"><g><path d="M 31.515625 -27.9375 C 30.835938 -27.9375 30.253906 -27.703125 29.765625 -27.234375 C 29.273438 -26.765625 29.019531 -26.191406 29 -25.515625 L 29 -4.609375 C 29 -3.046875 29.09375 -1.5625 29.28125 -0.15625 L 29.359375 0.5625 L 29 0.5625 L 6.921875 -23 L 6.921875 -2.828125 C 6.953125 -1.890625 7.375 -1.191406 8.1875 -0.734375 C 8.5625 -0.515625 8.960938 -0.40625 9.390625 -0.40625 L 10.171875 -0.40625 L 10.171875 0 L 1.828125 0 L 1.828125 -0.40625 L 2.59375 -0.40625 C 3.269531 -0.40625 3.847656 -0.640625 4.328125 -1.109375 C 4.816406 -1.585938 5.0625 -2.175781 5.0625 -2.875 L 5.0625 -23.890625 C 5.0625 -25.535156 4.96875 -27.007812 4.78125 -28.3125 L 4.703125 -28.953125 L 5.109375 -28.953125 L 27.171875 -5.390625 L 27.171875 -25.46875 C 27.148438 -26.175781 26.894531 -26.765625 26.40625 -27.234375 C 25.914062 -27.703125 25.335938 -27.9375 24.671875 -27.9375 L 23.890625 -27.9375 L 23.890625 -28.34375 L 32.234375 -28.34375 L 32.234375 -27.9375 Z M 31.515625 -27.9375 "/></g></g></g><g fill="#000000" fill-opacity="1"><g transform="translate(114.71251, 358.395203)"><g><path d="M 31.515625 -27.9375 C 30.835938 -27.9375 30.253906 -27.703125 29.765625 -27.234375 C 29.273438 -26.765625 29.019531 -26.191406 29 -25.515625 L 29 -4.609375 C 29 -3.046875 29.09375 -1.5625 29.28125 -0.15625 L 29.359375 0.5625 L 29 0.5625 L 6.921875 -23 L 6.921875 -2.828125 C 6.953125 -1.890625 7.375 -1.191406 8.1875 -0.734375 C 8.5625 -0.515625 8.960938 -0.40625 9.390625 -0.40625 L 10.171875 -0.40625 L 10.171875 0 L 1.828125 0 L 1.828125 -0.40625 L 2.59375 -0.40625 C 3.269531 -0.40625 3.847656 -0.640625 4.328125 -1.109375 C 4.816406 -1.585938 5.0625 -2.175781 5.0625 -2.875 L 5.0625 -23.890625 C 5.0625 -25.535156 4.96875 -27.007812 4.78125 -28.3125 L 4.703125 -28.953125 L 5.109375 -28.953125 L 27.171875 -5.390625 L 27.171875 -25.46875 C 27.148438 -26.175781 26.894531 -26.765625 26.40625 -27.234375 C 25.914062 -27.703125 25.335938 -27.9375 24.671875 -27.9375 L 23.890625 -27.9375 L 23.890625 -28.34375 L 32.234375 -28.34375 L 32.234375 -27.9375 Z M 31.515625 -27.9375 "/></g></g></g><g fill="#000000" fill-opacity="1"><g transform="translate(148.768253, 358.395203)"><g><path d="M 2.953125 -0.40625 C 3.660156 -0.40625 4.265625 -0.65625 4.765625 -1.15625 C 5.265625 -1.65625 5.523438 -2.253906 5.546875 -2.953125 L 5.546875 -25.4375 C 5.523438 -26.132812 5.265625 -26.722656 4.765625 -27.203125 C 4.265625 -27.691406 3.660156 -27.9375 2.953125 -27.9375 L 2.4375 -27.9375 L 2.4375 -28.34375 L 11.296875 -28.34375 L 11.296875 -27.9375 L 10.765625 -27.9375 C 10.066406 -27.9375 9.46875 -27.691406 8.96875 -27.203125 C 8.46875 -26.722656 8.207031 -26.132812 8.1875 -25.4375 L 8.1875 -2.953125 C 8.1875 -2.253906 8.441406 -1.65625 8.953125 -1.15625 C 9.460938 -0.65625 10.066406 -0.40625 10.765625 -0.40625 L 11.296875 -0.40625 L 11.296875 0 L 2.4375 0 L 2.4375 -0.40625 Z M 2.953125 -0.40625 "/></g></g></g><g fill="#000000" fill-opacity="1"><g transform="translate(162.455339, 358.395203)"><g/></g></g><g fill="#000000" fill-opacity="1"><g transform="translate(172.57893, 358.395203)"><g><path d="M 29 -0.40625 L 29.328125 -0.40625 L 29.328125 0 L 20.21875 0 L 20.21875 -0.40625 L 20.578125 -0.40625 C 21.148438 -0.40625 21.578125 -0.585938 21.859375 -0.953125 C 22.140625 -1.316406 22.28125 -1.660156 22.28125 -1.984375 C 22.28125 -2.304688 22.226562 -2.628906 22.125 -2.953125 L 19.53125 -9.84375 L 8.59375 -9.84375 L 5.875 -2.921875 C 5.769531 -2.597656 5.71875 -2.28125 5.71875 -1.96875 C 5.71875 -1.65625 5.859375 -1.316406 6.140625 -0.953125 C 6.421875 -0.585938 6.847656 -0.40625 7.421875 -0.40625 L 7.78125 -0.40625 L 7.78125 0 L -0.359375 0 L -0.359375 -0.40625 L 0 -0.40625 C 0.675781 -0.40625 1.335938 -0.617188 1.984375 -1.046875 C 2.640625 -1.484375 3.171875 -2.117188 3.578125 -2.953125 L 12.71875 -24.75 C 13.71875 -26.9375 14.21875 -28.328125 14.21875 -28.921875 L 14.59375 -28.921875 L 25.4375 -2.953125 C 25.8125 -2.117188 26.320312 -1.484375 26.96875 -1.046875 C 27.625 -0.617188 28.300781 -0.40625 29 -0.40625 Z M 9.078125 -11.0625 L 19.046875 -11.0625 L 14.1875 -24.0625 Z M 9.078125 -11.0625 "/></g></g></g><g fill="#000000" fill-opacity="1"><g transform="translate(201.410902, 358.395203)"><g><path d="M 12.3125 0 L 2.4375 0 L 2.46875 -0.40625 L 2.953125 -0.40625 C 3.660156 -0.40625 4.265625 -0.644531 4.765625 -1.125 C 5.265625 -1.613281 5.523438 -2.210938 5.546875 -2.921875 L 5.546875 -25.4375 C 5.546875 -26.132812 5.289062 -26.722656 4.78125 -27.203125 C 4.269531 -27.691406 3.660156 -27.9375 2.953125 -27.9375 L 2.46875 -27.9375 L 2.4375 -28.34375 L 10.484375 -28.34375 C 13.265625 -28.34375 15.425781 -27.726562 16.96875 -26.5 C 18.507812 -25.28125 19.28125 -23.644531 19.28125 -21.59375 C 19.28125 -19.96875 18.847656 -18.617188 17.984375 -17.546875 C 17.117188 -16.484375 16.066406 -15.78125 14.828125 -15.4375 C 16.953125 -15.101562 18.632812 -14.222656 19.875 -12.796875 C 21.125 -11.367188 21.75 -9.566406 21.75 -7.390625 C 21.75 -5.210938 20.914062 -3.4375 19.25 -2.0625 C 17.59375 -0.6875 15.28125 0 12.3125 0 Z M 8.1875 -1.453125 L 12.15625 -1.453125 C 12.175781 -1.453125 12.203125 -1.453125 12.234375 -1.453125 C 14.285156 -1.453125 15.878906 -2.007812 17.015625 -3.125 C 18.148438 -4.25 18.71875 -5.835938 18.71875 -7.890625 C 18.71875 -9.054688 18.519531 -10.078125 18.125 -10.953125 C 17.726562 -11.828125 17.234375 -12.523438 16.640625 -13.046875 C 15.078125 -14.335938 12.726562 -14.984375 9.59375 -14.984375 C 9.59375 -14.984375 9.582031 -14.984375 9.5625 -14.984375 L 9.5625 -15.34375 C 9.582031 -15.34375 9.707031 -15.34375 9.9375 -15.34375 C 10.164062 -15.34375 10.492188 -15.367188 10.921875 -15.421875 C 11.359375 -15.484375 11.847656 -15.582031 12.390625 -15.71875 C 12.929688 -15.851562 13.414062 -16.066406 13.84375 -16.359375 C 14.28125 -16.660156 14.6875 -17.015625 15.0625 -17.421875 C 15.84375 -18.304688 16.234375 -19.632812 16.234375 -21.40625 C 16.234375 -23.175781 15.726562 -24.554688 14.71875 -25.546875 C 13.707031 -26.546875 12.242188 -27.046875 10.328125 -27.046875 L 8.1875 -27.046875 Z M 8.1875 -1.453125 "/></g></g></g><g fill="#000000" fill-opacity="1"><g transform="translate(225.140589, 358.395203)"><g><path d="M 2.953125 -0.40625 C 3.660156 -0.40625 4.265625 -0.65625 4.765625 -1.15625 C 5.265625 -1.65625 5.523438 -2.253906 5.546875 -2.953125 L 5.546875 -25.4375 C 5.523438 -26.132812 5.265625 -26.722656 4.765625 -27.203125 C 4.265625 -27.691406 3.660156 -27.9375 2.953125 -27.9375 L 2.4375 -27.9375 L 2.4375 -28.34375 L 11.296875 -28.34375 L 11.296875 -27.9375 L 10.765625 -27.9375 C 10.066406 -27.9375 9.46875 -27.691406 8.96875 -27.203125 C 8.46875 -26.722656 8.207031 -26.132812 8.1875 -25.4375 L 8.1875 -2.953125 C 8.1875 -2.253906 8.441406 -1.65625 8.953125 -1.15625 C 9.460938 -0.65625 10.066406 -0.40625 10.765625 -0.40625 L 11.296875 -0.40625 L 11.296875 0 L 2.4375 0 L 2.4375 -0.40625 Z M 2.953125 -0.40625 "/></g></g></g><g fill="#000000" fill-opacity="1"><g transform="translate(238.835042, 358.395203)"><g/></g></g><g fill="#000000" fill-opacity="1"><g transform="translate(248.958634, 358.395203)"><g/></g></g><g fill="#000000" fill-opacity="1"><g transform="translate(259.088185, 358.395203)"><g><path d="M 16.15625 -28.34375 C 20.476562 -28.34375 23.984375 -27.039062 26.671875 -24.4375 C 29.359375 -21.832031 30.703125 -18.410156 30.703125 -14.171875 C 30.703125 -9.929688 29.359375 -6.507812 26.671875 -3.90625 C 23.984375 -1.300781 20.476562 0 16.15625 0 L 2.4375 0 L 2.4375 -0.40625 L 2.953125 -0.40625 C 3.660156 -0.40625 4.265625 -0.65625 4.765625 -1.15625 C 5.265625 -1.65625 5.523438 -2.253906 5.546875 -2.953125 L 5.546875 -25.640625 C 5.546875 -26.285156 5.28125 -26.828125 4.75 -27.265625 C 4.226562 -27.710938 3.628906 -27.9375 2.953125 -27.9375 L 2.46875 -27.9375 L 2.4375 -28.34375 Z M 8.1875 -27.140625 L 8.1875 -1.21875 L 16.15625 -1.21875 C 18.425781 -1.21875 20.429688 -1.753906 22.171875 -2.828125 C 23.910156 -3.910156 25.257812 -5.429688 26.21875 -7.390625 C 27.175781 -9.347656 27.65625 -11.609375 27.65625 -14.171875 C 27.65625 -18.054688 26.59375 -21.1875 24.46875 -23.5625 C 22.351562 -25.945312 19.582031 -27.140625 16.15625 -27.140625 Z M 8.1875 -27.140625 "/></g></g></g><g fill="#000000" fill-opacity="1"><g transform="translate(291.767119, 358.395203)"><g><path d="M 29.765625 -27.9375 L 29.125 -27.9375 C 28.550781 -27.9375 28.054688 -27.753906 27.640625 -27.390625 C 27.222656 -27.023438 27 -26.578125 26.96875 -26.046875 L 26.96875 -10 C 26.96875 -6.84375 25.96875 -4.289062 23.96875 -2.34375 C 21.976562 -0.40625 19.320312 0.5625 16 0.5625 C 12.675781 0.5625 9.976562 -0.398438 7.90625 -2.328125 C 5.84375 -4.253906 4.8125 -6.800781 4.8125 -9.96875 L 4.8125 -25.921875 C 4.8125 -26.734375 4.460938 -27.328125 3.765625 -27.703125 C 3.441406 -27.859375 3.078125 -27.9375 2.671875 -27.9375 L 2.03125 -27.9375 L 2.03125 -28.34375 L 10.25 -28.34375 L 10.25 -27.9375 L 9.59375 -27.9375 C 9 -27.9375 8.5 -27.753906 8.09375 -27.390625 C 7.695312 -27.023438 7.484375 -26.5625 7.453125 -26 L 7.453125 -10.53125 C 7.453125 -7.582031 8.238281 -5.203125 9.8125 -3.390625 C 11.394531 -1.585938 13.507812 -0.6875 16.15625 -0.6875 C 18.800781 -0.6875 20.945312 -1.539062 22.59375 -3.25 C 24.238281 -4.96875 25.0625 -7.21875 25.0625 -10 L 25.0625 -26 C 25.039062 -26.5625 24.828125 -27.023438 24.421875 -27.390625 C 24.015625 -27.753906 23.515625 -27.9375 22.921875 -27.9375 L 22.28125 -27.9375 L 22.28125 -28.34375 L 29.765625 -28.34375 Z M 29.765625 -27.9375 "/></g></g></g><g fill="#000000" fill-opacity="1"><g transform="translate(323.555176, 358.395203)"><g><path d="M 31.515625 -27.9375 C 30.835938 -27.9375 30.253906 -27.703125 29.765625 -27.234375 C 29.273438 -26.765625 29.019531 -26.191406 29 -25.515625 L 29 -4.609375 C 29 -3.046875 29.09375 -1.5625 29.28125 -0.15625 L 29.359375 0.5625 L 29 0.5625 L 6.921875 -23 L 6.921875 -2.828125 C 6.953125 -1.890625 7.375 -1.191406 8.1875 -0.734375 C 8.5625 -0.515625 8.960938 -0.40625 9.390625 -0.40625 L 10.171875 -0.40625 L 10.171875 0 L 1.828125 0 L 1.828125 -0.40625 L 2.59375 -0.40625 C 3.269531 -0.40625 3.847656 -0.640625 4.328125 -1.109375 C 4.816406 -1.585938 5.0625 -2.175781 5.0625 -2.875 L 5.0625 -23.890625 C 5.0625 -25.535156 4.96875 -27.007812 4.78125 -28.3125 L 4.703125 -28.953125 L 5.109375 -28.953125 L 27.171875 -5.390625 L 27.171875 -25.46875 C 27.148438 -26.175781 26.894531 -26.765625 26.40625 -27.234375 C 25.914062 -27.703125 25.335938 -27.9375 24.671875 -27.9375 L 23.890625 -27.9375 L 23.890625 -28.34375 L 32.234375 -28.34375 L 32.234375 -27.9375 Z M 31.515625 -27.9375 "/></g></g></g><g fill="#000000" fill-opacity="1"><g transform="translate(89.292728, 245.256194)"><g><path d="M 32.6875 -201.578125 C 44.582031 -206.515625 56.023438 -208.984375 67.015625 -208.984375 C 76.171875 -208.984375 85.597656 -205.597656 95.296875 -198.828125 C 100.609375 -195.171875 106.5625 -188.03125 113.15625 -177.40625 C 117.550781 -170.082031 123.132812 -156.8125 129.90625 -137.59375 L 163.40625 -42.5625 C 171.09375 -21.320312 178.914062 -4.4375 186.875 8.09375 C 194.84375 20.632812 202.125 30.0625 208.71875 36.375 C 215.3125 42.695312 222.175781 47.140625 229.3125 49.703125 C 236.457031 52.265625 242.363281 53.546875 247.03125 53.546875 C 251.695312 53.546875 255.863281 53.179688 259.53125 52.453125 L 259.796875 55.203125 C 251.015625 58.128906 242.410156 59.59375 233.984375 59.59375 C 225.566406 59.59375 217.144531 57.441406 208.71875 53.140625 C 200.300781 48.835938 192.429688 42.84375 185.109375 35.15625 C 169.359375 19.226562 155.992188 -5.03125 145.015625 -37.625 L 134.296875 -68.9375 L 59.046875 -68.9375 L 40.109375 -20.046875 C 39.191406 -17.847656 38.734375 -15.648438 38.734375 -13.453125 C 38.734375 -11.253906 39.691406 -8.921875 41.609375 -6.453125 C 43.535156 -3.984375 46.507812 -2.75 50.53125 -2.75 L 52.734375 -2.75 L 52.734375 0 L -2.46875 0 L -2.46875 -2.75 L 0 -2.75 C 4.394531 -2.75 8.695312 -4.070312 12.90625 -6.71875 C 17.125 -9.375 20.601562 -13.359375 23.34375 -18.671875 L 91.453125 -181.796875 C 81.566406 -195.898438 69.300781 -202.953125 54.65625 -202.953125 C 48.0625 -202.953125 41.015625 -201.578125 33.515625 -198.828125 Z M 62.078125 -77.171875 L 131.546875 -77.171875 L 109.859375 -141.15625 C 105.648438 -153.425781 101.804688 -163.039062 98.328125 -170 Z M 62.078125 -77.171875 "/></g></g></g><g clip-path="url(#909693c2f4)"><g clip-path="url(#8dc9e26e76)"><path fill="#d8a54f" d="M 171.757812 5.921875 L 202.386719 5.921875 L 202.386719 36.550781 L 171.757812 36.550781 Z M 171.757812 5.921875 " fill-opacity="1" fill-rule="nonzero"/></g></g><g clip-path="url(#d940ff346b)"><g clip-path="url(#eef0c89ee6)"><path fill="#000000" d="M 100.722656 175.851562 L 120.679688 175.851562 L 120.679688 195.808594 L 100.722656 195.808594 Z M 100.722656 175.851562 " fill-opacity="1" fill-rule="nonzero"/></g></g><g fill="#d8a54f" fill-opacity="1"><g transform="translate(73.021077, 266.494187)"><g><path d="M 30.15625 -67.421875 C 21.375 -55.929688 16.984375 -43.507812 16.984375 -30.15625 C 16.984375 -14.28125 23.65625 -1.945312 37 6.84375 C 44.769531 12.082031 53.597656 14.703125 63.484375 14.703125 C 73.367188 14.703125 81.945312 12.757812 89.21875 8.875 C 102.90625 1.769531 110.59375 -10.140625 112.28125 -26.859375 C 112.445312 -28.046875 112.53125 -29.234375 112.53125 -30.421875 C 112.53125 -36.671875 110.796875 -43.425781 107.328125 -50.6875 C 103.867188 -57.957031 98.253906 -64.632812 90.484375 -70.71875 L 44.859375 -106.703125 C 34.890625 -114.472656 29.90625 -124.523438 29.90625 -136.859375 C 29.90625 -149.191406 33.875 -159.625 41.8125 -168.15625 C 49.757812 -176.695312 60.492188 -180.96875 74.015625 -180.96875 C 80.765625 -180.96875 88.113281 -180.125 96.0625 -178.4375 L 106.203125 -178.4375 L 106.703125 -147.25 L 104.171875 -147.25 C 104.003906 -155.363281 101.085938 -161.742188 95.421875 -166.390625 C 89.765625 -171.035156 82.664062 -173.359375 74.125 -173.359375 C 65.59375 -173.359375 58.453125 -170.523438 52.703125 -164.859375 C 46.960938 -159.203125 44.09375 -151.9375 44.09375 -143.0625 C 44.09375 -134.195312 47.8125 -126.804688 55.25 -120.890625 L 102.140625 -83.890625 C 120.722656 -69.191406 130.015625 -51.453125 130.015625 -30.671875 C 130.015625 -15.117188 123.847656 -1.769531 111.515625 9.375 C 100.867188 19.007812 86.675781 23.828125 68.9375 23.828125 C 58.125 23.828125 48.492188 21.796875 40.046875 17.734375 C 24.160156 10.304688 14.613281 -2.363281 11.40625 -20.28125 C 10.894531 -22.976562 10.640625 -26.394531 10.640625 -30.53125 C 10.640625 -34.675781 11.820312 -40.335938 14.1875 -47.515625 C 16.550781 -54.703125 21.113281 -61.925781 27.875 -69.1875 Z M 30.15625 -67.421875 "/></g></g></g><g clip-path="url(#a86ba4b61a)"><g clip-path="url(#f6455d1bbf)"><path fill="#d8a54f" d="M 235.960938 330.730469 L 261.886719 330.730469 L 261.886719 356.65625 L 235.960938 356.65625 Z M 235.960938 330.730469 " fill-opacity="1" fill-rule="nonzero"/></g></g></svg>