<?xml version="1.0" encoding="UTF-8"?>
<!DOCTYPE svg PUBLIC "-//W3C//DTD SVG 1.1//EN" "http://www.w3.org/Graphics/SVG/1.1/DTD/svg11.dtd">
<svg xmlns="http://www.w3.org/2000/svg" version="1.1" width="150px" height="150px" style="shape-rendering:geometricPrecision; text-rendering:geometricPrecision; image-rendering:optimizeQuality; fill-rule:evenodd; clip-rule:evenodd" xmlns:xlink="http://www.w3.org/1999/xlink">
<g><path style="opacity:1" fill="#dbb87e" d="M 238.5,45.5 C 233.787,43.2789 230.62,39.6122 229,34.5C 226.318,18.5405 232.985,9.2072 249,6.5C 264.48,8.97878 271.146,17.9788 269,33.5C 264.647,45.431 256.147,50.2643 243.5,48C 241.509,47.6264 239.842,46.793 238.5,45.5 Z"/></g>
<g><path style="opacity:1" fill="#d6a54e" d="M 238.5,45.5 C 227.105,34.5195 226.772,23.3528 237.5,12C 240.396,10.1889 243.396,10.0222 246.5,11.5C 247.672,11.0814 248.672,10.4147 249.5,9.5C 251.776,10.2132 254.109,10.7132 256.5,11C 258.36,13.0616 260.694,14.3949 263.5,15C 263.963,17.5849 265.13,19.7516 267,21.5C 267.796,27.6605 267.129,33.6605 265,39.5C 262.216,42.6311 258.716,43.9645 254.5,43.5C 254.5,44.5 254.5,45.5 254.5,46.5C 249.13,46.6079 243.797,46.2745 238.5,45.5 Z"/></g>
<g><path style="opacity:1" fill="#101010" d="M 256.5,71.5 C 256.738,73.4044 257.738,74.7377 259.5,75.5C 262.605,78.2749 264.938,81.6082 266.5,85.5C 266.427,87.0269 267.094,88.0269 268.5,88.5C 274.357,97.548 279.191,107.215 283,117.5C 304.409,178.729 326.409,239.729 349,300.5C 354.527,311.553 360.027,322.553 365.5,333.5C 365.427,335.027 366.094,336.027 367.5,336.5C 371.068,341.291 374.402,346.291 377.5,351.5C 377.427,353.027 378.094,354.027 379.5,354.5C 381.633,356.091 383.299,358.091 384.5,360.5C 384.427,362.027 385.094,363.027 386.5,363.5C 387.5,363.833 388.167,364.5 388.5,365.5C 388.738,367.404 389.738,368.738 391.5,369.5C 398.593,376.263 406.26,382.263 414.5,387.5C 414.821,389.048 415.821,389.715 417.5,389.5C 432.745,396.818 448.745,399.151 465.5,396.5C 465.773,398.451 465.107,399.951 463.5,401C 448.053,406.256 432.386,407.423 416.5,404.5C 414.485,403.076 412.152,402.41 409.5,402.5C 390.257,396.264 374.257,385.264 361.5,369.5C 361.512,366.858 360.179,365.525 357.5,365.5C 343.408,347.862 331.908,328.529 323,307.5C 313.601,283.47 305.101,259.137 297.5,234.5C 272.833,234.5 248.167,234.5 223.5,234.5C 223.167,234.5 222.833,234.5 222.5,234.5C 217.848,231.179 213.515,227.513 209.5,223.5C 237.502,223.667 265.502,223.5 293.5,223C 289.531,212.26 285.864,201.426 282.5,190.5C 282.33,189.178 282.663,188.011 283.5,187C 282.309,186.302 281.309,185.469 280.5,184.5C 271.507,156.858 261.507,129.525 250.5,102.5C 249.699,100.207 249.032,100.54 248.5,103.5C 246.067,111.479 243.067,119.146 239.5,126.5C 238.521,123.375 238.187,120.042 238.5,116.5C 234.351,117.08 230.684,116.414 227.5,114.5C 231.226,104.715 235.226,95.0479 239.5,85.5C 240.885,84.0527 240.552,83.0527 238.5,82.5C 235.543,78.2079 232.21,74.2079 228.5,70.5C 227.415,68.4131 225.749,67.0798 223.5,66.5C 223.027,65.0937 222.027,64.427 220.5,64.5C 202.368,55.0032 183.701,54.0032 164.5,61.5C 162.364,60.8826 161.53,59.5493 162,57.5C 165.341,55.7463 168.841,54.4129 172.5,53.5C 175.495,53.7062 178.162,53.0395 180.5,51.5C 210.17,41.9168 235.503,48.5835 256.5,71.5 Z"/></g>
<g><path style="opacity:0.973" fill="#5f5f5f" d="M 180.5,51.5 C 178.162,53.0395 175.495,53.7062 172.5,53.5C 174.905,52.2318 177.572,51.5651 180.5,51.5 Z"/></g>
<g><path style="opacity:0.545" fill="#8a8a8a" d="M 220.5,64.5 C 222.027,64.427 223.027,65.0937 223.5,66.5C 221.973,66.573 220.973,65.9063 220.5,64.5 Z"/></g>
<g><path style="opacity:0.902" fill="#818181" d="M 223.5,66.5 C 225.749,67.0798 227.415,68.4131 228.5,70.5C 226.251,69.9202 224.585,68.5869 223.5,66.5 Z"/></g>
<g><path style="opacity:0.906" fill="#7c7c7c" d="M 256.5,71.5 C 258.262,72.2623 259.262,73.5956 259.5,75.5C 257.738,74.7377 256.738,73.4044 256.5,71.5 Z"/></g>
<g><path style="opacity:0.396" fill="#9c9c9c" d="M 238.5,82.5 C 240.552,83.0527 240.885,84.0527 239.5,85.5C 239.443,84.391 239.11,83.391 238.5,82.5 Z"/></g>
<g><path style="opacity:0.573" fill="#828282" d="M 266.5,85.5 C 267.906,85.9731 268.573,86.9731 268.5,88.5C 267.094,88.0269 266.427,87.0269 266.5,85.5 Z"/></g>
<g><path style="opacity:0.02" fill="#d7d7d7" d="M 250.5,102.5 C 249.833,102.833 249.167,103.167 248.5,103.5C 249.032,100.54 249.699,100.207 250.5,102.5 Z"/></g>
<g><path style="opacity:1" fill="#d5a550" d="M 231.5,141.5 C 228.732,138.229 225.732,135.062 222.5,132C 221.212,131.761 220.212,132.261 219.5,133.5C 219.67,132.178 219.337,131.011 218.5,130C 215.039,127.934 211.373,126.434 207.5,125.5C 204.062,124.177 200.229,123.51 196,123.5C 189.109,122.906 182.609,124.073 176.5,127C 175.748,127.671 175.414,128.504 175.5,129.5C 173.228,130.441 171.228,131.774 169.5,133.5C 167.473,133.662 165.473,133.495 163.5,133C 162.5,130.909 163.167,129.243 165.5,128C 164.594,126.301 164.261,124.467 164.5,122.5C 166.199,122.66 167.866,122.494 169.5,122C 169.167,121.667 168.833,121.333 168.5,121C 170.898,119.476 173.231,117.976 175.5,116.5C 182.593,115.308 189.76,114.641 197,114.5C 210.411,116.674 223.911,117.674 237.5,117.5C 237.667,129.838 237.5,142.171 237,154.5C 235.334,150.337 234.501,146.003 234.5,141.5C 233.5,141.5 232.5,141.5 231.5,141.5 Z"/></g>
<g><path style="opacity:1" fill="#dec190" d="M 207.5,125.5 C 196.316,123.213 185.649,124.546 175.5,129.5C 175.414,128.504 175.748,127.671 176.5,127C 182.609,124.073 189.109,122.906 196,123.5C 200.229,123.51 204.062,124.177 207.5,125.5 Z"/></g>
<g><path style="opacity:1" fill="#d9b06b" d="M 175.5,116.5 C 173.231,117.976 170.898,119.476 168.5,121C 168.833,121.333 169.167,121.667 169.5,122C 167.866,122.494 166.199,122.66 164.5,122.5C 164.261,124.467 164.594,126.301 165.5,128C 163.167,129.243 162.5,130.909 163.5,133C 165.473,133.495 167.473,133.662 169.5,133.5C 155.372,148.313 152.705,164.979 161.5,183.5C 159.673,181.868 157.839,180.201 156,178.5C 155.333,170.167 155.333,161.833 156,153.5C 156.923,148.402 158.423,143.569 160.5,139C 159.833,137.333 159.167,135.667 158.5,134C 159.448,133.517 160.448,133.351 161.5,133.5C 161.454,129.765 159.787,128.432 156.5,129.5C 156.709,130.086 157.043,130.586 157.5,131C 154.004,131.656 151.004,133.156 148.5,135.5C 155.019,125.649 164.019,119.316 175.5,116.5 Z"/></g>
<g><path style="opacity:1" fill="#141414" d="M 231.5,141.5 C 232.833,143.167 232.833,144.833 231.5,146.5C 222.737,170.8 213.404,194.8 203.5,218.5C 199.544,216.515 195.878,214.015 192.5,211C 190.859,209.871 189.859,208.371 189.5,206.5C 198.735,181.78 208.735,157.447 219.5,133.5C 220.212,132.261 221.212,131.761 222.5,132C 225.732,135.062 228.732,138.229 231.5,141.5 Z"/></g>
<g><path style="opacity:1" fill="#d2b077" d="M 227.5,114.5 C 230.684,116.414 234.351,117.08 238.5,116.5C 238.187,120.042 238.521,123.375 239.5,126.5C 239.5,137.167 239.5,147.833 239.5,158.5C 238.022,158.762 236.689,158.429 235.5,157.5C 234.788,154.352 234.121,151.186 233.5,148C 233.164,146.97 232.497,146.47 231.5,146.5C 232.833,144.833 232.833,143.167 231.5,141.5C 232.5,141.5 233.5,141.5 234.5,141.5C 234.501,146.003 235.334,150.337 237,154.5C 237.5,142.171 237.667,129.838 237.5,117.5C 223.911,117.674 210.411,116.674 197,114.5C 189.76,114.641 182.593,115.308 175.5,116.5C 177.877,115.113 180.543,114.279 183.5,114C 197.301,112.85 210.968,113.684 224.5,116.5C 225.739,116.058 226.739,115.391 227.5,114.5 Z"/></g>
<g><path style="opacity:1" fill="#d9b370" d="M 140.5,149.5 C 140.692,154.13 140.025,158.63 138.5,163C 138.667,163.833 138.833,164.667 139,165.5C 140.194,163.377 140.86,161.043 141,158.5C 142.006,165.628 141.173,172.461 138.5,179C 139.077,183.218 139.91,187.384 141,191.5C 143.234,193.704 144.401,196.37 144.5,199.5C 140.369,194.298 137.869,188.298 137,181.5C 136.333,174.833 136.333,168.167 137,161.5C 137.569,157.205 138.736,153.205 140.5,149.5 Z"/></g>
<g><path style="opacity:1" fill="#6b6b6b" d="M 280.5,184.5 C 281.309,185.469 282.309,186.302 283.5,187C 282.663,188.011 282.33,189.178 282.5,190.5C 281.262,188.786 280.595,186.786 280.5,184.5 Z"/></g>
<g><path style="opacity:1" fill="#daba7e" d="M 168.5,191.5 C 174.24,195.365 179.573,199.698 184.5,204.5C 182.127,202.846 179.46,201.513 176.5,200.5C 174.368,197.797 171.701,196.13 168.5,195.5C 168.5,194.167 168.5,192.833 168.5,191.5 Z"/></g>
<g><path style="opacity:1" fill="#dcbf86" d="M 144.5,200.5 C 146.854,201.013 148.854,202.179 150.5,204C 151.988,206.648 153.654,209.148 155.5,211.5C 150.855,208.855 147.188,205.188 144.5,200.5 Z"/></g>
<g><path style="opacity:1" fill="#101010" d="M 178.5,231.5 C 179.552,231.351 180.552,231.517 181.5,232C 184.319,234.575 187.319,236.908 190.5,239C 192.607,240.264 193.607,242.097 193.5,244.5C 186.298,264.578 178.798,284.578 171,304.5C 170.413,308.31 170.913,311.977 172.5,315.5C 172.427,317.027 173.094,318.027 174.5,318.5C 178.973,321.536 183.973,322.869 189.5,322.5C 189.5,323.833 189.5,325.167 189.5,326.5C 166.833,326.5 144.167,326.5 121.5,326.5C 120.566,325.432 120.232,324.099 120.5,322.5C 132.545,320.281 141.712,313.948 148,303.5C 158.271,279.512 168.438,255.512 178.5,231.5 Z"/></g>
<g><path style="opacity:1" fill="#151515" d="M 143.5,233.5 C 156.658,233.159 162.158,239.492 160,252.5C 154.642,260.932 147.476,262.765 138.5,258C 132.206,251.306 131.873,244.306 137.5,237C 139.432,235.541 141.432,234.375 143.5,233.5 Z"/></g>
<g><path style="opacity:1" fill="#cca665" d="M 170.5,223.5 C 171.873,223.343 173.207,223.51 174.5,224C 175.79,226.292 177.457,228.292 179.5,230C 183.444,231.901 187.444,233.901 191.5,236C 192.99,239.823 195.323,242.989 198.5,245.5C 196.983,245.489 195.816,244.823 195,243.5C 194.617,244.056 194.117,244.389 193.5,244.5C 193.607,242.097 192.607,240.264 190.5,239C 187.319,236.908 184.319,234.575 181.5,232C 180.552,231.517 179.552,231.351 178.5,231.5C 176.14,228.473 173.473,225.806 170.5,223.5 Z"/></g>
<g><path style="opacity:1" fill="#d7af68" d="M 222.5,234.5 C 222.833,234.5 223.167,234.5 223.5,234.5C 233.12,241.453 241.787,249.453 249.5,258.5C 244.508,255.225 239.508,251.891 234.5,248.5C 234.709,247.914 235.043,247.414 235.5,247C 232.765,247.198 230.099,247.031 227.5,246.5C 226.05,245.15 225.383,243.484 225.5,241.5C 226.675,241.719 227.675,241.386 228.5,240.5C 225.128,239.795 223.128,237.795 222.5,234.5 Z"/></g>
<g><path style="opacity:1" fill="#d6a651" d="M 161.5,183.5 C 163.804,186.141 166.138,188.808 168.5,191.5C 168.5,192.833 168.5,194.167 168.5,195.5C 171.701,196.13 174.368,197.797 176.5,200.5C 179.46,201.513 182.127,202.846 184.5,204.5C 186.167,205.167 187.833,205.833 189.5,206.5C 189.859,208.371 190.859,209.871 192.5,211C 195.878,214.015 199.544,216.515 203.5,218.5C 205.475,220.137 207.475,221.804 209.5,223.5C 213.515,227.513 217.848,231.179 222.5,234.5C 223.128,237.795 225.128,239.795 228.5,240.5C 227.675,241.386 226.675,241.719 225.5,241.5C 225.383,243.484 226.05,245.15 227.5,246.5C 230.099,247.031 232.765,247.198 235.5,247C 235.043,247.414 234.709,247.914 234.5,248.5C 239.508,251.891 244.508,255.225 249.5,258.5C 266.225,277.687 272.892,300.021 269.5,325.5C 268.685,326.429 267.852,327.429 267,328.5C 266.178,332.876 265.178,337.209 264,341.5C 262.989,342.337 261.822,342.67 260.5,342.5C 259.833,345.833 259.167,349.167 258.5,352.5C 250.389,366.278 238.722,375.612 223.5,380.5C 215.462,381.579 207.462,383.079 199.5,385C 193.843,385.499 188.176,385.666 182.5,385.5C 177.643,384.672 172.643,383.838 167.5,383C 166.167,382.333 166.167,381.667 167.5,381C 161.489,381.114 155.823,379.947 150.5,377.5C 151.345,375.28 151.345,373.28 150.5,371.5C 153.134,370.484 155.8,370.484 158.5,371.5C 159.833,371.5 161.167,371.5 162.5,371.5C 162.833,371.5 163.167,371.5 163.5,371.5C 163.414,372.496 163.748,373.329 164.5,374C 170.822,374.65 177.155,375.15 183.5,375.5C 186.59,375.478 189.257,374.812 191.5,373.5C 191.833,373.5 192.167,373.5 192.5,373.5C 202.434,373.016 211.767,370.349 220.5,365.5C 221.425,364.643 222.092,363.643 222.5,362.5C 227.5,358.167 232.167,353.5 236.5,348.5C 238.74,347.432 240.574,345.766 242,343.5C 242.757,338.164 244.423,333.164 247,328.5C 247.962,317.542 247.462,306.709 245.5,296C 247.154,292.803 247.321,289.636 246,286.5C 245.308,287.025 244.808,287.692 244.5,288.5C 245.52,290.432 245.687,292.432 245,294.5C 244.329,293.748 243.496,293.414 242.5,293.5C 240.796,290.744 239.463,287.744 238.5,284.5C 236.116,276.919 231.449,271.253 224.5,267.5C 215.833,260.167 207.167,252.833 198.5,245.5C 195.323,242.989 192.99,239.823 191.5,236C 187.444,233.901 183.444,231.901 179.5,230C 177.457,228.292 175.79,226.292 174.5,224C 173.207,223.51 171.873,223.343 170.5,223.5C 164.917,220.253 159.917,216.253 155.5,211.5C 153.654,209.148 151.988,206.648 150.5,204C 148.854,202.179 146.854,201.013 144.5,200.5C 144.5,200.167 144.5,199.833 144.5,199.5C 144.401,196.37 143.234,193.704 141,191.5C 139.91,187.384 139.077,183.218 138.5,179C 141.173,172.461 142.006,165.628 141,158.5C 140.86,161.043 140.194,163.377 139,165.5C 138.833,164.667 138.667,163.833 138.5,163C 140.025,158.63 140.692,154.13 140.5,149.5C 141.943,144.075 144.61,139.409 148.5,135.5C 151.004,133.156 154.004,131.656 157.5,131C 157.043,130.586 156.709,130.086 156.5,129.5C 159.787,128.432 161.454,129.765 161.5,133.5C 160.448,133.351 159.448,133.517 158.5,134C 159.167,135.667 159.833,137.333 160.5,139C 158.423,143.569 156.923,148.402 156,153.5C 155.333,161.833 155.333,170.167 156,178.5C 157.839,180.201 159.673,181.868 161.5,183.5 Z"/></g>
<g><path style="opacity:1" fill="#d8b474" d="M 124.5,287.5 C 124.808,285.076 124.474,282.743 123.5,280.5C 122.473,279.209 121.473,279.209 120.5,280.5C 123.862,274.29 127.862,268.457 132.5,263C 134.367,262.289 135.867,262.789 137,264.5C 132.723,271.986 128.556,279.653 124.5,287.5 Z"/></g>
<g><path style="opacity:1" fill="#e4cb9a" d="M 224.5,267.5 C 231.449,271.253 236.116,276.919 238.5,284.5C 234.561,278.321 229.894,272.654 224.5,267.5 Z"/></g>
<g><path style="opacity:1" fill="#d5a54f" d="M 124.5,287.5 C 122.852,289.56 121.352,291.893 120,294.5C 119.667,294.167 119.333,293.833 119,293.5C 118.425,289.026 118.925,284.693 120.5,280.5C 121.473,279.209 122.473,279.209 123.5,280.5C 124.474,282.743 124.808,285.076 124.5,287.5 Z"/></g>
<g><path style="opacity:1" fill="#dab577" d="M 120.5,280.5 C 118.925,284.693 118.425,289.026 119,293.5C 119.333,293.833 119.667,294.167 120,294.5C 121.352,291.893 122.852,289.56 124.5,287.5C 120.882,298.981 119.549,310.648 120.5,322.5C 120.232,324.099 120.566,325.432 121.5,326.5C 124.326,341.647 131.993,353.647 144.5,362.5C 141.068,361.239 137.735,359.739 134.5,358C 133.267,355.686 131.933,353.519 130.5,351.5C 125.703,347.328 122.87,341.995 122,335.5C 120.684,332.972 119.517,332.972 118.5,335.5C 117.702,333.922 117.202,332.256 117,330.5C 116.056,331.263 115.556,332.263 115.5,333.5C 115.972,335.307 116.306,337.14 116.5,339C 118.407,344.625 120.407,350.125 122.5,355.5C 112.094,339.473 108.761,322.14 112.5,303.5C 113.597,295.206 116.264,287.539 120.5,280.5 Z"/></g>
<g><path style="opacity:1" fill="#d6a54e" d="M 112.5,303.5 C 113.817,300.167 115.317,296.834 117,293.5C 118.236,294.399 119.07,295.566 119.5,297C 118.705,306.466 118.205,315.966 118,325.5C 117.085,324.672 116.419,323.672 116,322.5C 115.71,324.044 115.044,325.377 114,326.5C 112.536,319.007 112.036,311.34 112.5,303.5 Z"/></g>
<g><path style="opacity:0.561" fill="#868686" d="M 172.5,315.5 C 173.906,315.973 174.573,316.973 174.5,318.5C 173.094,318.027 172.427,317.027 172.5,315.5 Z"/></g>
<g><path style="opacity:1" fill="#d7b474" d="M 236.5,348.5 C 246.753,331.065 248.753,312.731 242.5,293.5C 243.496,293.414 244.329,293.748 245,294.5C 245.687,292.432 245.52,290.432 244.5,288.5C 244.808,287.692 245.308,287.025 246,286.5C 247.321,289.636 247.154,292.803 245.5,296C 247.462,306.709 247.962,317.542 247,328.5C 244.423,333.164 242.757,338.164 242,343.5C 240.574,345.766 238.74,347.432 236.5,348.5 Z"/></g>
<g><path style="opacity:0.973" fill="#ddbd87" d="M 269.5,325.5 C 268.352,335.629 264.686,344.629 258.5,352.5C 259.167,349.167 259.833,345.833 260.5,342.5C 261.822,342.67 262.989,342.337 264,341.5C 265.178,337.209 266.178,332.876 267,328.5C 267.852,327.429 268.685,326.429 269.5,325.5 Z"/></g>
<g><path style="opacity:0.467" fill="#909090" d="M 365.5,333.5 C 366.906,333.973 367.573,334.973 367.5,336.5C 366.094,336.027 365.427,335.027 365.5,333.5 Z"/></g>
<g><path style="opacity:1" fill="#d6a54f" d="M 130.5,351.5 C 129.318,353.003 128.818,354.67 129,356.5C 134.397,359.462 139.564,362.462 144.5,365.5C 143.147,367.183 141.48,368.516 139.5,369.5C 135.682,366.881 131.682,364.548 127.5,362.5C 125.445,360.445 123.779,358.112 122.5,355.5C 120.407,350.125 118.407,344.625 116.5,339C 116.306,337.14 115.972,335.307 115.5,333.5C 115.556,332.263 116.056,331.263 117,330.5C 117.202,332.256 117.702,333.922 118.5,335.5C 119.517,332.972 120.684,332.972 122,335.5C 122.87,341.995 125.703,347.328 130.5,351.5 Z"/></g>
<g><path style="opacity:0.624" fill="#7f7f7f" d="M 377.5,351.5 C 378.906,351.973 379.573,352.973 379.5,354.5C 378.094,354.027 377.427,353.027 377.5,351.5 Z"/></g>
<g><path style="opacity:0.69" fill="#979797" d="M 384.5,360.5 C 385.906,360.973 386.573,361.973 386.5,363.5C 385.094,363.027 384.427,362.027 384.5,360.5 Z"/></g>
<g><path style="opacity:1" fill="#575757" d="M 357.5,365.5 C 360.179,365.525 361.512,366.858 361.5,369.5C 359.833,368.5 358.5,367.167 357.5,365.5 Z"/></g>
<g><path style="opacity:0.792" fill="#8b8b8b" d="M 388.5,365.5 C 390.262,366.262 391.262,367.596 391.5,369.5C 389.738,368.738 388.738,367.404 388.5,365.5 Z"/></g>
<g><path style="opacity:1" fill="#d6ab60" d="M 130.5,351.5 C 131.933,353.519 133.267,355.686 134.5,358C 137.735,359.739 141.068,361.239 144.5,362.5C 146.882,363.351 148.882,364.684 150.5,366.5C 152.854,368.525 155.521,370.192 158.5,371.5C 155.8,370.484 153.134,370.484 150.5,371.5C 151.345,373.28 151.345,375.28 150.5,377.5C 155.823,379.947 161.489,381.114 167.5,381C 166.167,381.667 166.167,382.333 167.5,383C 172.643,383.838 177.643,384.672 182.5,385.5C 180.167,385.5 177.833,385.5 175.5,385.5C 156.427,384.059 140.427,376.392 127.5,362.5C 131.682,364.548 135.682,366.881 139.5,369.5C 141.48,368.516 143.147,367.183 144.5,365.5C 139.564,362.462 134.397,359.462 129,356.5C 128.818,354.67 129.318,353.003 130.5,351.5 Z"/></g>
<g><path style="opacity:1" fill="#e6cfa1" d="M 150.5,366.5 C 154.739,367.796 158.739,369.462 162.5,371.5C 161.167,371.5 159.833,371.5 158.5,371.5C 155.521,370.192 152.854,368.525 150.5,366.5 Z"/></g>
<g><path style="opacity:0.98" fill="#d9be8c" d="M 222.5,362.5 C 222.092,363.643 221.425,364.643 220.5,365.5C 211.767,370.349 202.434,373.016 192.5,373.5C 203.007,371.44 213.007,367.773 222.5,362.5 Z"/></g>
<g><path style="opacity:1" fill="#ddbb81" d="M 163.5,371.5 C 172.865,373.64 182.199,374.307 191.5,373.5C 189.257,374.812 186.59,375.478 183.5,375.5C 177.155,375.15 170.822,374.65 164.5,374C 163.748,373.329 163.414,372.496 163.5,371.5 Z"/></g>
<g><path style="opacity:0.947" fill="#d9bb8a" d="M 223.5,380.5 C 217.289,383.518 210.623,385.351 203.5,386C 193.991,386.824 184.657,386.658 175.5,385.5C 177.833,385.5 180.167,385.5 182.5,385.5C 188.176,385.666 193.843,385.499 199.5,385C 207.462,383.079 215.462,381.579 223.5,380.5 Z"/></g>
<g><path style="opacity:0.937" fill="#7c7c7c" d="M 414.5,387.5 C 415.71,387.932 416.71,388.599 417.5,389.5C 415.821,389.715 414.821,389.048 414.5,387.5 Z"/></g>
<g><path style="opacity:0.686" fill="#6d6d6d" d="M 409.5,402.5 C 412.152,402.41 414.485,403.076 416.5,404.5C 413.848,404.59 411.515,403.924 409.5,402.5 Z"/></g>
<g><path style="opacity:0.108" fill="#d9d9d9" d="M 438.5,439.5 C 437.662,439.842 437.328,440.508 437.5,441.5C 436.224,440.614 436.224,439.614 437.5,438.5C 438.107,438.624 438.44,438.957 438.5,439.5 Z"/></g>
<g><path style="opacity:1" fill="#2a2a2a" d="M 63.5,439.5 C 63.6633,441.857 63.4966,444.19 63,446.5C 62.3028,444.416 61.1361,442.749 59.5,441.5C 57.7078,440.691 55.7078,440.191 53.5,440C 56.8168,439.502 60.1501,439.335 63.5,439.5 Z"/></g>
<g><path style="opacity:0.094" fill="#dbdbdb" d="M 114.5,439.5 C 113.662,439.842 113.328,440.508 113.5,441.5C 112.224,440.614 112.224,439.614 113.5,438.5C 114.107,438.624 114.44,438.957 114.5,439.5 Z"/></g>
<g><path style="opacity:0.793" fill="#676767" d="M 146.5,441.5 C 145.167,440.167 143.833,440.167 142.5,441.5C 141.078,441.291 139.745,440.791 138.5,440C 142.5,439.333 146.5,439.333 150.5,440C 149.255,440.791 147.922,441.291 146.5,441.5 Z"/></g>
<g><path style="opacity:0.792" fill="#5e5e5e" d="M 191.5,442.5 C 190.5,439.833 189.5,439.833 188.5,442.5C 187.118,441.199 185.452,440.366 183.5,440C 187.5,439.333 191.5,439.333 195.5,440C 194.016,440.662 192.683,441.496 191.5,442.5 Z"/></g>
<g><path style="opacity:0.792" fill="#646464" d="M 209.5,441.5 C 208.903,440.861 208.07,440.528 207,440.5C 205.624,440.684 204.791,441.351 204.5,442.5C 203.317,441.496 201.984,440.662 200.5,440C 204.833,439.333 209.167,439.333 213.5,440C 212.255,440.791 210.922,441.291 209.5,441.5 Z"/></g>
<g><path style="opacity:0.259" fill="#b4b4b4" d="M 249.5,439.5 C 248.833,440.167 248.167,440.833 247.5,441.5C 247.281,440.325 247.614,439.325 248.5,438.5C 249.107,438.624 249.44,438.957 249.5,439.5 Z"/></g>
<g><path style="opacity:0.796" fill="#606161" d="M 311.5,441.5 C 310.903,440.861 310.07,440.528 309,440.5C 307.624,440.684 306.791,441.351 306.5,442.5C 305.317,441.496 303.984,440.662 302.5,440C 306.833,439.333 311.167,439.333 315.5,440C 314.255,440.791 312.922,441.291 311.5,441.5 Z"/></g>
<g><path style="opacity:0.798" fill="#626262" d="M 398.5,442.5 C 398.38,441.414 397.713,440.747 396.5,440.5C 395.584,440.543 394.917,440.876 394.5,441.5C 393.234,440.91 391.901,440.41 390.5,440C 394.5,439.333 398.5,439.333 402.5,440C 401.016,440.662 399.683,441.496 398.5,442.5 Z"/></g>
<g><path style="opacity:0.792" fill="#656565" d="M 424.5,442.5 C 423.947,440.448 422.947,440.115 421.5,441.5C 420.078,441.291 418.745,440.791 417.5,440C 421.167,439.333 424.833,439.333 428.5,440C 427.016,440.662 425.683,441.496 424.5,442.5 Z"/></g>
<g><path style="opacity:0.796" fill="#646464" d="M 470.5,441.5 C 469.167,440.167 467.833,440.167 466.5,441.5C 465.078,441.291 463.745,440.791 462.5,440C 466.5,439.333 470.5,439.333 474.5,440C 473.255,440.791 471.922,441.291 470.5,441.5 Z"/></g>
<g><path style="opacity:0.984" fill="#868686" d="M 63.5,439.5 C 60.1501,439.335 56.8168,439.502 53.5,440C 55.7078,440.191 57.7078,440.691 59.5,441.5C 56.4867,441.107 53.8201,441.774 51.5,443.5C 51.5,442.167 50.8333,441.5 49.5,441.5C 50.0577,440.21 51.0577,439.377 52.5,439C 56.3575,438.19 60.0242,438.357 63.5,439.5 Z"/></g>
<g><path style="opacity:0.999" fill="#242424" d="M 114.5,439.5 C 117.833,442.167 120.833,445.167 123.5,448.5C 123.738,450.404 124.738,451.738 126.5,452.5C 130.5,455.833 134.167,459.5 137.5,463.5C 138.08,465.749 139.413,467.415 141.5,468.5C 141.56,469.043 141.893,469.376 142.5,469.5C 143.822,460.342 143.822,451.342 142.5,442.5C 142.5,442.167 142.5,441.833 142.5,441.5C 143.833,440.167 145.167,440.167 146.5,441.5C 145.833,453.5 145.167,465.5 144.5,477.5C 142.833,476.5 141.5,475.167 140.5,473.5C 140.5,471.5 139.5,470.5 137.5,470.5C 130.464,463.466 123.797,456.133 117.5,448.5C 117.44,447.957 117.107,447.624 116.5,447.5C 115.178,456.658 115.178,465.658 116.5,474.5C 117.882,475.801 119.548,476.634 121.5,477C 118.183,477.498 114.85,477.665 111.5,477.5C 111.5,477.167 111.5,476.833 111.5,476.5C 111.783,475.711 112.283,475.044 113,474.5C 113.5,463.505 113.667,452.505 113.5,441.5C 113.328,440.508 113.662,439.842 114.5,439.5 Z"/></g>
<g><path style="opacity:0.999" fill="#1b1b1b" d="M 160.5,439.5 C 161.08,441.749 162.413,443.415 164.5,444.5C 167.167,446.5 169.5,448.833 171.5,451.5C 171.539,452.583 171.873,453.583 172.5,454.5C 171.675,455.386 170.675,455.719 169.5,455.5C 167.167,453.833 165.167,451.833 163.5,449.5C 163.217,448.711 162.717,448.044 162,447.5C 161.176,457.009 161.342,466.343 162.5,475.5C 163.766,476.09 165.099,476.59 166.5,477C 162.5,477.667 158.5,477.667 154.5,477C 155.901,476.59 157.234,476.09 158.5,475.5C 159.167,463.5 159.833,451.5 160.5,439.5 Z"/></g>
<g><path style="opacity:0.729" fill="#9a9a9a" d="M 160.5,439.5 C 162.587,440.585 163.92,442.251 164.5,444.5C 162.413,443.415 161.08,441.749 160.5,439.5 Z"/></g>
<g><path style="opacity:1" fill="#262626" d="M 191.5,442.5 C 191.188,454.218 191.521,465.884 192.5,477.5C 191.998,478.521 191.332,478.688 190.5,478C 187.961,475.63 185.628,473.13 183.5,470.5C 184.964,468.016 186.631,468.016 188.5,470.5C 189.822,461.342 189.822,452.342 188.5,443.5C 188.5,443.167 188.5,442.833 188.5,442.5C 189.5,439.833 190.5,439.833 191.5,442.5 Z"/></g>
<g><path style="opacity:1" fill="#393939" d="M 209.5,441.5 C 209.333,452.838 209.5,464.172 210,475.5C 211.067,476.191 212.234,476.691 213.5,477C 208.407,477.821 204.74,477.655 202.5,476.5C 203.833,476.5 204.5,475.833 204.5,474.5C 204.5,463.833 204.5,453.167 204.5,442.5C 204.791,441.351 205.624,440.684 207,440.5C 208.07,440.528 208.903,440.861 209.5,441.5 Z"/></g>
<g><path style="opacity:1" fill="#3a3a3a" d="M 249.5,439.5 C 254.557,450.628 259.391,461.961 264,473.5C 265.319,475.487 267.152,476.654 269.5,477C 264.833,477.667 260.167,477.667 255.5,477C 257.18,476.653 258.18,475.653 258.5,474C 257.338,470.853 256.338,467.686 255.5,464.5C 250.821,464.334 246.155,464.501 241.5,465C 240.038,468.094 238.704,471.261 237.5,474.5C 238.09,475.799 239.09,476.632 240.5,477C 236.5,477.667 232.5,477.667 228.5,477C 230.081,476.293 231.581,475.46 233,474.5C 237.884,463.41 242.717,452.41 247.5,441.5C 248.167,440.833 248.833,440.167 249.5,439.5 Z M 247.5,448.5 C 248.167,448.5 248.833,448.5 249.5,448.5C 250.833,453.167 252.167,457.833 253.5,462.5C 249.774,462.823 246.107,462.489 242.5,461.5C 244.457,457.256 246.124,452.923 247.5,448.5 Z"/></g>
<g><path style="opacity:1" fill="#373737" d="M 279.5,441.5 C 279.5,452.833 279.5,464.167 279.5,475.5C 281.5,475.5 283.5,475.5 285.5,475.5C 285.5,476.167 285.5,476.833 285.5,477.5C 280.489,477.666 275.489,477.499 270.5,477C 271.766,476.691 272.933,476.191 274,475.5C 274.5,464.172 274.667,452.838 274.5,441.5C 276.167,440.167 277.833,440.167 279.5,441.5 Z"/></g>
<g><path style="opacity:0.999" fill="#434343" d="M 285.5,477.5 C 285.5,476.833 285.5,476.167 285.5,475.5C 292.892,472.23 294.225,467.23 289.5,460.5C 286.616,459.184 283.616,458.184 280.5,457.5C 289.09,455.213 291.09,450.38 286.5,443C 284.187,442.338 281.854,441.838 279.5,441.5C 277.833,440.167 276.167,440.167 274.5,441.5C 273.078,441.291 271.745,440.791 270.5,440C 276.167,439.333 281.833,439.333 287.5,440C 295.413,444.164 296.413,449.664 290.5,456.5C 298.074,461.372 299.408,467.539 294.5,475C 291.794,476.908 288.794,477.741 285.5,477.5 Z"/></g>
<g><path style="opacity:1" fill="#3b3b3b" d="M 311.5,441.5 C 311.333,452.838 311.5,464.172 312,475.5C 313.067,476.191 314.234,476.691 315.5,477C 311.167,477.667 306.833,477.667 302.5,477C 303.5,476.5 304.5,476 305.5,475.5C 306.499,464.52 306.832,453.52 306.5,442.5C 306.791,441.351 307.624,440.684 309,440.5C 310.07,440.528 310.903,440.861 311.5,441.5 Z"/></g>
<g><path style="opacity:1" fill="#292929" d="M 369.5,477.5 C 362.159,477.666 354.826,477.5 347.5,477C 348.766,476.691 349.933,476.191 351,475.5C 351.5,464.172 351.667,452.838 351.5,441.5C 352.568,440.566 353.901,440.232 355.5,440.5C 355.5,452.5 355.5,464.5 355.5,476.5C 360.363,476.181 365.03,476.514 369.5,477.5 Z"/></g>
<g><path style="opacity:1" fill="#242424" d="M 398.5,442.5 C 398.334,449.841 398.5,457.174 399,464.5C 399.117,467.963 400.284,470.963 402.5,473.5C 402.577,474.75 403.244,475.583 404.5,476C 403.552,476.483 402.552,476.649 401.5,476.5C 400.833,476.5 400.5,476.167 400.5,475.5C 400.027,474.094 399.027,473.427 397.5,473.5C 396.207,472.158 395.374,470.491 395,468.5C 394.5,459.506 394.334,450.506 394.5,441.5C 394.917,440.876 395.584,440.543 396.5,440.5C 397.713,440.747 398.38,441.414 398.5,442.5 Z"/></g>
<g><path style="opacity:1" fill="#2c2c2c" d="M 424.5,442.5 C 424.666,451.839 424.5,461.173 424,470.5C 423.34,472.324 422.173,473.657 420.5,474.5C 419.761,474.631 419.094,474.464 418.5,474C 419.823,473.184 420.489,472.017 420.5,470.5C 421.421,460.873 421.755,451.206 421.5,441.5C 422.947,440.115 423.947,440.448 424.5,442.5 Z"/></g>
<g><path style="opacity:1" fill="#1e1e1e" d="M 470.5,441.5 C 470.5,441.833 470.5,442.167 470.5,442.5C 470.159,454.037 469.159,465.37 467.5,476.5C 462.861,471.526 458.195,466.526 453.5,461.5C 451.882,459.344 452.216,457.677 454.5,456.5C 457.5,458.833 460.167,461.5 462.5,464.5C 462.738,466.404 463.738,467.738 465.5,468.5C 465.56,469.043 465.893,469.376 466.5,469.5C 467.822,460.342 467.822,451.342 466.5,442.5C 466.5,442.167 466.5,441.833 466.5,441.5C 467.833,440.167 469.167,440.167 470.5,441.5 Z"/></g>
<g><path style="opacity:1" fill="#393939" d="M 111.5,476.5 C 111.5,476.833 111.5,477.167 111.5,477.5C 105.824,477.666 100.157,477.499 94.5,477C 96.1802,476.653 97.1802,475.653 97.5,474C 96.3379,470.853 95.3379,467.686 94.5,464.5C 89.8215,464.334 85.1548,464.501 80.5,465C 79.0376,468.094 77.7043,471.261 76.5,474.5C 77.09,475.799 78.09,476.632 79.5,477C 75.5,477.667 71.5,477.667 67.5,477C 69.0806,476.293 70.5806,475.46 72,474.5C 77.447,462.608 82.6136,450.608 87.5,438.5C 93.1632,449.837 98.3299,461.504 103,473.5C 105.196,476.125 108.03,477.125 111.5,476.5 Z M 86.5,448.5 C 87.1667,448.5 87.8333,448.5 88.5,448.5C 89.8333,453.167 91.1667,457.833 92.5,462.5C 88.774,462.823 85.1073,462.489 81.5,461.5C 83.4574,457.256 85.1241,452.923 86.5,448.5 Z"/></g>
<g><path style="opacity:1" fill="#d5b67d" d="M 345.5,447.5 C 342.402,446.784 339.736,445.284 337.5,443C 335.5,442.833 333.5,442.667 331.5,442.5C 327.173,442.556 323.173,443.556 319.5,445.5C 317.626,449.82 316.293,454.32 315.5,459C 315.045,461.923 316.045,464.09 318.5,465.5C 319.452,467.045 319.785,468.712 319.5,470.5C 311.522,461.912 311.522,453.245 319.5,444.5C 324.913,440.708 330.913,439.541 337.5,441C 340.936,442.274 343.603,444.441 345.5,447.5 Z"/></g>
<g><path style="opacity:1" fill="#d6a54e" d="M 345.5,447.5 C 345.943,450.812 346.276,454.145 346.5,457.5C 345.605,462.912 343.938,467.912 341.5,472.5C 341.167,472.5 340.833,472.5 340.5,472.5C 337.517,472.898 334.517,473.232 331.5,473.5C 327.295,473.048 323.295,472.048 319.5,470.5C 319.785,468.712 319.452,467.045 318.5,465.5C 316.045,464.09 315.045,461.923 315.5,459C 316.293,454.32 317.626,449.82 319.5,445.5C 323.173,443.556 327.173,442.556 331.5,442.5C 333.5,442.667 335.5,442.833 337.5,443C 339.736,445.284 342.402,446.784 345.5,447.5 Z"/></g>
<g><path style="opacity:0.245" fill="#b6b6b6" d="M 160.5,439.5 C 159.833,451.5 159.167,463.5 158.5,475.5C 158.168,463.149 158.501,450.815 159.5,438.5C 160.107,438.624 160.44,438.957 160.5,439.5 Z"/></g>
<g><path style="opacity:1" fill="#484848" d="M 369.5,477.5 C 365.03,476.514 360.363,476.181 355.5,476.5C 355.5,464.5 355.5,452.5 355.5,440.5C 353.901,440.232 352.568,440.566 351.5,441.5C 350.078,441.291 348.745,440.791 347.5,440C 356.167,439.333 364.833,439.333 373.5,440C 385.076,445.379 388.91,454.212 385,466.5C 382.168,473.504 377.001,477.171 369.5,477.5 Z M 356.5,441.5 C 377.008,439.833 384.508,448.833 379,468.5C 372.899,474.929 365.399,477.262 356.5,475.5C 356.5,464.167 356.5,452.833 356.5,441.5 Z"/></g>
<g><path style="opacity:1" fill="#313131" d="M 438.5,439.5 C 441.5,441.833 444.167,444.5 446.5,447.5C 447.08,449.749 448.413,451.415 450.5,452.5C 452.167,453.5 453.5,454.833 454.5,456.5C 452.216,457.677 451.882,459.344 453.5,461.5C 449.349,457.241 445.182,452.908 441,448.5C 440.333,457.167 440.333,465.833 441,474.5C 442.171,475.893 443.671,476.727 445.5,477C 441.167,477.667 436.833,477.667 432.5,477C 434.329,476.727 435.829,475.893 437,474.5C 437.5,463.505 437.667,452.505 437.5,441.5C 437.328,440.508 437.662,439.842 438.5,439.5 Z"/></g>
<g><path style="opacity:0.259" fill="#b9b9b9" d="M 142.5,442.5 C 143.822,451.342 143.822,460.342 142.5,469.5C 141.893,469.376 141.56,469.043 141.5,468.5C 142.493,460.016 142.826,451.349 142.5,442.5 Z"/></g>
<g><path style="opacity:0.146" fill="#cdcdcd" d="M 146.5,441.5 C 146.832,453.851 146.499,466.185 145.5,478.5C 144.893,478.376 144.56,478.043 144.5,477.5C 145.167,465.5 145.833,453.5 146.5,441.5 Z"/></g>
<g><path style="opacity:0.153" fill="#c9c9c9" d="M 470.5,442.5 C 470.832,454.518 470.499,466.518 469.5,478.5C 468.478,478.145 467.811,477.478 467.5,476.5C 469.159,465.37 470.159,454.037 470.5,442.5 Z"/></g>
<g><path style="opacity:0.004" fill="#e4e4e4" d="M 88.5,448.5 C 87.8333,448.5 87.1667,448.5 86.5,448.5C 86.7856,446.067 87.4523,446.067 88.5,448.5 Z"/></g>
<g><path style="opacity:0.004" fill="#e3e3e3" d="M 249.5,448.5 C 248.833,448.5 248.167,448.5 247.5,448.5C 247.786,446.067 248.452,446.067 249.5,448.5 Z"/></g>
<g><path style="opacity:0.258" fill="#bababa" d="M 466.5,442.5 C 467.822,451.342 467.822,460.342 466.5,469.5C 465.893,469.376 465.56,469.043 465.5,468.5C 466.493,460.016 466.826,451.349 466.5,442.5 Z"/></g>
<g><path style="opacity:0.725" fill="#9e9e9e" d="M 446.5,447.5 C 448.587,448.585 449.92,450.251 450.5,452.5C 448.413,451.415 447.08,449.749 446.5,447.5 Z"/></g>
<g><path style="opacity:0.675" fill="#9f9f9f" d="M 123.5,448.5 C 125.262,449.262 126.262,450.596 126.5,452.5C 124.738,451.738 123.738,450.404 123.5,448.5 Z"/></g>
<g><path style="opacity:0.999" fill="#414141" d="M 49.5,441.5 C 50.8333,441.5 51.5,442.167 51.5,443.5C 50.1697,445.881 50.3364,448.214 52,450.5C 55.7002,454.535 59.7002,458.202 64,461.5C 67.4947,468.018 66.3281,473.518 60.5,478C 56.0745,478.791 51.7411,478.457 47.5,477C 45.0092,474.032 44.8426,470.865 47,467.5C 49.2726,476.589 53.9392,478.256 61,472.5C 61.711,470.101 61.5443,467.768 60.5,465.5C 55.4817,461.315 50.9817,456.649 47,451.5C 46.0311,447.594 46.8644,444.261 49.5,441.5 Z"/></g>
<g><path style="opacity:0.735" fill="#494949" d="M 117.5,448.5 C 116.507,456.984 116.174,465.651 116.5,474.5C 115.178,465.658 115.178,456.658 116.5,447.5C 117.107,447.624 117.44,447.957 117.5,448.5 Z"/></g>
<g><path style="opacity:0.999" fill="#3a3a3a" d="M 188.5,443.5 C 189.822,452.342 189.822,461.342 188.5,470.5C 186.631,468.016 184.964,468.016 183.5,470.5C 178.146,466.113 173.48,461.113 169.5,455.5C 170.675,455.719 171.675,455.386 172.5,454.5C 171.873,453.583 171.539,452.583 171.5,451.5C 173.167,452.5 174.5,453.833 175.5,455.5C 176.08,457.749 177.413,459.415 179.5,460.5C 182.464,462.962 185.297,465.629 188,468.5C 188.5,460.173 188.666,451.84 188.5,443.5 Z"/></g>
<g><path style="opacity:0.226" fill="#c3c3c3" d="M 163.5,449.5 C 162.507,457.984 162.174,466.651 162.5,475.5C 161.342,466.343 161.176,457.009 162,447.5C 162.717,448.044 163.217,448.711 163.5,449.5 Z"/></g>
<g><path style="opacity:0.718" fill="#9e9e9e" d="M 175.5,455.5 C 177.587,456.585 178.92,458.251 179.5,460.5C 177.413,459.415 176.08,457.749 175.5,455.5 Z"/></g>
<g><path style="opacity:0.71" fill="#9d9d9d" d="M 137.5,463.5 C 139.587,464.585 140.92,466.251 141.5,468.5C 139.413,467.415 138.08,465.749 137.5,463.5 Z"/></g>
<g><path style="opacity:1" fill="#d6b77c" d="M 345.5,447.5 C 350.543,454.22 350.71,461.22 346,468.5C 344.629,470.041 343.129,471.375 341.5,472.5C 343.938,467.912 345.605,462.912 346.5,457.5C 346.276,454.145 345.943,450.812 345.5,447.5 Z"/></g>
<g><path style="opacity:0.663" fill="#a1a1a1" d="M 462.5,464.5 C 464.262,465.262 465.262,466.596 465.5,468.5C 463.738,467.738 462.738,466.404 462.5,464.5 Z"/></g>
<g><path style="opacity:0.62" fill="#a8a8a8" d="M 137.5,470.5 C 139.5,470.5 140.5,471.5 140.5,473.5C 139.167,472.833 138.167,471.833 137.5,470.5 Z"/></g>
<g><path style="opacity:1" fill="#dabd86" d="M 319.5,470.5 C 323.295,472.048 327.295,473.048 331.5,473.5C 334.517,473.232 337.517,472.898 340.5,472.5C 333.057,476.862 326.057,476.195 319.5,470.5 Z"/></g>
<g><path style="opacity:0.765" fill="#8b8b8b" d="M 397.5,473.5 C 399.027,473.427 400.027,474.094 400.5,475.5C 398.973,475.573 397.973,474.906 397.5,473.5 Z"/></g>
<g><path style="opacity:0.525" fill="#b9b9b9" d="M 204.5,474.5 C 204.5,475.833 203.833,476.5 202.5,476.5C 202.833,475.5 203.5,474.833 204.5,474.5 Z"/></g>
<g><path style="opacity:1" fill="#4e4e4e" d="M 420.5,470.5 C 420.489,472.017 419.823,473.184 418.5,474C 419.094,474.464 419.761,474.631 420.5,474.5C 419.341,476.25 417.674,477.25 415.5,477.5C 412.15,477.665 408.817,477.498 405.5,477C 406.793,476.51 408.127,476.343 409.5,476.5C 413.893,475.804 417.56,473.804 420.5,470.5 Z"/></g>
<g><path style="opacity:0.722" fill="#7c7c7c" d="M 402.5,473.5 C 404.855,474.659 407.188,475.659 409.5,476.5C 408.127,476.343 406.793,476.51 405.5,477C 408.817,477.498 412.15,477.665 415.5,477.5C 413.866,478.161 412.033,478.494 410,478.5C 406.85,478.64 404.017,477.973 401.5,476.5C 402.552,476.649 403.552,476.483 404.5,476C 403.244,475.583 402.577,474.75 402.5,473.5 Z"/></g>
</svg>
